<svg width="1909" height="1882" viewBox="0 0 1909 1882" fill="none" xmlns="http://www.w3.org/2000/svg">
<path d="M561.072 899.125C561.072 701.412 565.091 476.775 573.128 225.213C574.735 164.131 708.955 125.553 975.787 109.479C980.609 94.2085 980.609 75.3213 975.787 52.8174C765.215 59.2471 600.856 62.4619 482.71 62.4619C383.854 62.4619 243.606 59.2471 61.9678 52.8174C55.5381 67.2842 55.5381 86.1714 61.9678 109.479C246.821 127.161 340.052 165.739 341.659 225.213C349.696 414.085 353.715 638.723 353.715 899.125C353.715 1153.9 348.893 1407.47 339.248 1659.84C337.641 1719.31 244.41 1757.89 59.5566 1775.57C54.7344 1795.66 54.7344 1814.55 59.5566 1832.23C214.673 1827.41 575.137 1825 1140.95 1825C1333.84 1825 1478.51 1788.83 1574.95 1716.5C1671.4 1644.17 1761.41 1522.4 1845 1351.21C1838.57 1337.55 1824.51 1326.7 1802.81 1318.66C1771.46 1376.53 1736.9 1427.97 1699.13 1472.97C1661.35 1517.98 1611.52 1563.39 1549.64 1609.2C1487.75 1654.21 1410.59 1689.17 1318.17 1714.09C1226.54 1739 1122.46 1751.46 1005.93 1751.46H570.717C564.287 1469.36 561.072 1185.25 561.072 899.125ZM744.318 988.337C744.318 1208.55 747.533 1446.45 753.963 1702.03H1003.52C1360.36 1702.03 1619.56 1553.75 1781.11 1257.18C1848.62 1282.09 1891.21 1313.44 1908.9 1351.21C1793.96 1541.69 1726.45 1716.1 1706.36 1874.43H733.468C416.002 1874.43 180.113 1876.84 25.8008 1881.66C8.92285 1829.42 8.11914 1778.38 23.3896 1728.55C199.402 1710.87 288.212 1687.16 289.82 1657.43C299.464 1405.06 304.287 1152.29 304.287 899.125C304.287 640.33 300.268 416.497 292.231 227.625C290.624 197.887 201.01 174.178 23.3896 156.496C9.72656 103.451 11.334 51.6118 28.2119 0.978027C168.058 9.01514 348.089 13.0337 568.306 13.0337C601.258 13.0337 667.162 12.23 766.019 10.6226C864.875 9.01514 951.274 8.21143 1025.22 8.21143C1040.49 54.0229 1041.29 103.451 1027.63 156.496C850.006 174.178 760.393 197.887 758.785 227.625C749.141 428.552 744.318 682.123 744.318 988.337Z" fill="#256B43"/>
</svg>
